<mxfile host="app.diagrams.net" modified="2021-09-22T14:05:34.110Z" agent="5.0 (Macintosh; Intel Mac OS X 10_15_7) AppleWebKit/537.36 (KHTML, like Gecko) Chrome/93.0.4577.82 Safari/537.36" etag="6aT3Mg1aoM6ulCA4N_b8" version="15.2.7" type="github">
  <diagram id="C5RBs43oDa-KdzZeNtuy" name="Page-1">
    <mxGraphModel dx="565" dy="364" grid="1" gridSize="10" guides="1" tooltips="1" connect="1" arrows="1" fold="1" page="1" pageScale="1" pageWidth="827" pageHeight="1169" math="0" shadow="0">
      <root>
        <mxCell id="WIyWlLk6GJQsqaUBKTNV-0" />
        <mxCell id="WIyWlLk6GJQsqaUBKTNV-1" parent="WIyWlLk6GJQsqaUBKTNV-0" />
        <mxCell id="WIyWlLk6GJQsqaUBKTNV-2" value="" style="rounded=0;html=1;jettySize=auto;orthogonalLoop=1;fontSize=11;endArrow=block;endFill=0;endSize=8;strokeWidth=1;shadow=0;labelBackgroundColor=none;edgeStyle=orthogonalEdgeStyle;" parent="WIyWlLk6GJQsqaUBKTNV-1" source="WIyWlLk6GJQsqaUBKTNV-3" target="WIyWlLk6GJQsqaUBKTNV-6" edge="1">
          <mxGeometry relative="1" as="geometry" />
        </mxCell>
        <mxCell id="WIyWlLk6GJQsqaUBKTNV-3" value="asset name" style="rounded=1;whiteSpace=wrap;html=1;fontSize=12;glass=0;strokeWidth=1;shadow=0;" parent="WIyWlLk6GJQsqaUBKTNV-1" vertex="1">
          <mxGeometry x="160" y="30" width="120" height="40" as="geometry" />
        </mxCell>
        <mxCell id="WIyWlLk6GJQsqaUBKTNV-4" value="Yes" style="rounded=0;html=1;jettySize=auto;orthogonalLoop=1;fontSize=11;endArrow=block;endFill=0;endSize=8;strokeWidth=1;shadow=0;labelBackgroundColor=none;edgeStyle=orthogonalEdgeStyle;" parent="WIyWlLk6GJQsqaUBKTNV-1" source="WIyWlLk6GJQsqaUBKTNV-6" edge="1">
          <mxGeometry y="20" relative="1" as="geometry">
            <mxPoint as="offset" />
            <mxPoint x="220" y="290" as="targetPoint" />
          </mxGeometry>
        </mxCell>
        <mxCell id="WIyWlLk6GJQsqaUBKTNV-5" value="No" style="edgeStyle=orthogonalEdgeStyle;rounded=0;html=1;jettySize=auto;orthogonalLoop=1;fontSize=11;endArrow=block;endFill=0;endSize=8;strokeWidth=1;shadow=0;labelBackgroundColor=none;" parent="WIyWlLk6GJQsqaUBKTNV-1" source="WIyWlLk6GJQsqaUBKTNV-6" target="WIyWlLk6GJQsqaUBKTNV-7" edge="1">
          <mxGeometry y="10" relative="1" as="geometry">
            <mxPoint as="offset" />
          </mxGeometry>
        </mxCell>
        <mxCell id="WIyWlLk6GJQsqaUBKTNV-6" value="is upgrades &lt;br&gt;(LD flag)" style="rhombus;whiteSpace=wrap;html=1;shadow=0;fontFamily=Helvetica;fontSize=12;align=center;strokeWidth=1;spacing=6;spacingTop=-4;" parent="WIyWlLk6GJQsqaUBKTNV-1" vertex="1">
          <mxGeometry x="170" y="170" width="100" height="80" as="geometry" />
        </mxCell>
        <mxCell id="WIyWlLk6GJQsqaUBKTNV-7" value="get content from legacy map" style="rounded=1;whiteSpace=wrap;html=1;fontSize=12;glass=0;strokeWidth=1;shadow=0;" parent="WIyWlLk6GJQsqaUBKTNV-1" vertex="1">
          <mxGeometry x="320" y="190" width="120" height="40" as="geometry" />
        </mxCell>
        <mxCell id="WIyWlLk6GJQsqaUBKTNV-12" value="get content from upgrades map" style="rounded=1;whiteSpace=wrap;html=1;fontSize=12;glass=0;strokeWidth=1;shadow=0;" parent="WIyWlLk6GJQsqaUBKTNV-1" vertex="1">
          <mxGeometry x="160" y="290" width="120" height="40" as="geometry" />
        </mxCell>
        <mxCell id="ZQYPcDyfvWfTfjv8xI74-7" value="Upgrades mapping (user/asset)" style="shape=table;childLayout=tableLayout;rowLines=0;columnLines=0;startSize=40;collapsible=0;recursiveResize=0;expand=0;pointerEvents=0;fontStyle=1;align=center;" vertex="1" parent="WIyWlLk6GJQsqaUBKTNV-1">
          <mxGeometry x="160" y="390" width="360" height="370" as="geometry" />
        </mxCell>
        <mxCell id="ZQYPcDyfvWfTfjv8xI74-8" value="device card text" style="swimlane;horizontal=0;points=[[0,0.5],[1,0.5]];portConstraint=eastwest;startSize=40;collapsible=0;recursiveResize=0;expand=0;pointerEvents=0;fontStyle=1" vertex="1" parent="ZQYPcDyfvWfTfjv8xI74-7">
          <mxGeometry y="40" width="360" height="110" as="geometry" />
        </mxCell>
        <mxCell id="ZQYPcDyfvWfTfjv8xI74-9" value="Out" style="swimlane;connectable=0;startSize=40;collapsible=0;recursiveResize=0;expand=0;pointerEvents=0;" vertex="1" parent="ZQYPcDyfvWfTfjv8xI74-8">
          <mxGeometry x="40" width="107" height="110" as="geometry" />
        </mxCell>
        <mxCell id="ZQYPcDyfvWfTfjv8xI74-10" value="In" style="swimlane;connectable=0;startSize=40;collapsible=0;recursiveResize=0;expand=0;pointerEvents=0;" vertex="1" parent="ZQYPcDyfvWfTfjv8xI74-8">
          <mxGeometry x="147" width="106" height="110" as="geometry" />
        </mxCell>
        <mxCell id="ZQYPcDyfvWfTfjv8xI74-11" value="In eligible" style="swimlane;connectable=0;startSize=40;collapsible=0;recursiveResize=0;expand=0;pointerEvents=0;" vertex="1" parent="ZQYPcDyfvWfTfjv8xI74-8">
          <mxGeometry x="253" width="107" height="110" as="geometry" />
        </mxCell>
        <mxCell id="ZQYPcDyfvWfTfjv8xI74-12" value="banner" style="swimlane;horizontal=0;points=[[0,0.5],[1,0.5]];portConstraint=eastwest;startSize=40;collapsible=0;recursiveResize=0;expand=0;pointerEvents=0;" vertex="1" parent="ZQYPcDyfvWfTfjv8xI74-7">
          <mxGeometry y="150" width="360" height="110" as="geometry" />
        </mxCell>
        <mxCell id="ZQYPcDyfvWfTfjv8xI74-13" value="" style="swimlane;connectable=0;startSize=0;collapsible=0;recursiveResize=0;expand=0;pointerEvents=0;" vertex="1" parent="ZQYPcDyfvWfTfjv8xI74-12">
          <mxGeometry x="40" width="107" height="110" as="geometry" />
        </mxCell>
        <mxCell id="ZQYPcDyfvWfTfjv8xI74-14" value="" style="swimlane;connectable=0;startSize=0;collapsible=0;recursiveResize=0;expand=0;pointerEvents=0;" vertex="1" parent="ZQYPcDyfvWfTfjv8xI74-12">
          <mxGeometry x="147" width="106" height="110" as="geometry" />
        </mxCell>
        <mxCell id="ZQYPcDyfvWfTfjv8xI74-15" value="" style="swimlane;connectable=0;startSize=0;collapsible=0;recursiveResize=0;expand=0;pointerEvents=0;" vertex="1" parent="ZQYPcDyfvWfTfjv8xI74-12">
          <mxGeometry x="253" width="107" height="110" as="geometry" />
        </mxCell>
        <mxCell id="ZQYPcDyfvWfTfjv8xI74-16" value="data 3" style="swimlane;horizontal=0;points=[[0,0.5],[1,0.5]];portConstraint=eastwest;startSize=40;collapsible=0;recursiveResize=0;expand=0;pointerEvents=0;" vertex="1" parent="ZQYPcDyfvWfTfjv8xI74-7">
          <mxGeometry y="260" width="360" height="110" as="geometry" />
        </mxCell>
        <mxCell id="ZQYPcDyfvWfTfjv8xI74-17" value="" style="swimlane;connectable=0;startSize=0;collapsible=0;recursiveResize=0;expand=0;pointerEvents=0;" vertex="1" parent="ZQYPcDyfvWfTfjv8xI74-16">
          <mxGeometry x="40" width="107" height="110" as="geometry" />
        </mxCell>
        <mxCell id="ZQYPcDyfvWfTfjv8xI74-18" value="" style="swimlane;connectable=0;startSize=0;collapsible=0;recursiveResize=0;expand=0;pointerEvents=0;" vertex="1" parent="ZQYPcDyfvWfTfjv8xI74-16">
          <mxGeometry x="147" width="106" height="110" as="geometry" />
        </mxCell>
        <mxCell id="ZQYPcDyfvWfTfjv8xI74-19" value="" style="swimlane;connectable=0;startSize=0;collapsible=0;recursiveResize=0;expand=0;pointerEvents=0;" vertex="1" parent="ZQYPcDyfvWfTfjv8xI74-16">
          <mxGeometry x="253" width="107" height="110" as="geometry" />
        </mxCell>
        <mxCell id="ZQYPcDyfvWfTfjv8xI74-33" value="Legacy content mapping" style="shape=table;startSize=30;container=1;collapsible=0;childLayout=tableLayout;fixedRows=1;rowLines=0;fontStyle=1;align=center;pointerEvents=1;" vertex="1" parent="WIyWlLk6GJQsqaUBKTNV-1">
          <mxGeometry x="480" y="170" width="160" height="160" as="geometry" />
        </mxCell>
        <mxCell id="ZQYPcDyfvWfTfjv8xI74-34" value="" style="shape=partialRectangle;html=1;whiteSpace=wrap;collapsible=0;dropTarget=0;pointerEvents=1;fillColor=none;top=0;left=0;bottom=1;right=0;points=[[0,0.5],[1,0.5]];portConstraint=eastwest;" vertex="1" parent="ZQYPcDyfvWfTfjv8xI74-33">
          <mxGeometry y="30" width="160" height="50" as="geometry" />
        </mxCell>
        <mxCell id="ZQYPcDyfvWfTfjv8xI74-35" value="device card text" style="shape=partialRectangle;html=1;whiteSpace=wrap;connectable=0;fillColor=none;top=0;left=0;bottom=0;right=0;overflow=hidden;pointerEvents=1;" vertex="1" parent="ZQYPcDyfvWfTfjv8xI74-34">
          <mxGeometry width="80" height="50" as="geometry" />
        </mxCell>
        <mxCell id="ZQYPcDyfvWfTfjv8xI74-36" value="Value 1" style="shape=partialRectangle;html=1;whiteSpace=wrap;connectable=0;fillColor=none;top=0;left=0;bottom=0;right=0;align=left;spacingLeft=6;overflow=hidden;pointerEvents=1;" vertex="1" parent="ZQYPcDyfvWfTfjv8xI74-34">
          <mxGeometry x="80" width="80" height="50" as="geometry" />
        </mxCell>
        <mxCell id="ZQYPcDyfvWfTfjv8xI74-37" value="" style="shape=partialRectangle;html=1;whiteSpace=wrap;collapsible=0;dropTarget=0;pointerEvents=1;fillColor=none;top=0;left=0;bottom=0;right=0;points=[[0,0.5],[1,0.5]];portConstraint=eastwest;" vertex="1" parent="ZQYPcDyfvWfTfjv8xI74-33">
          <mxGeometry y="80" width="160" height="30" as="geometry" />
        </mxCell>
        <mxCell id="ZQYPcDyfvWfTfjv8xI74-38" value="content 2" style="shape=partialRectangle;html=1;whiteSpace=wrap;connectable=0;fillColor=none;top=0;left=0;bottom=0;right=0;overflow=hidden;pointerEvents=1;" vertex="1" parent="ZQYPcDyfvWfTfjv8xI74-37">
          <mxGeometry width="80" height="30" as="geometry" />
        </mxCell>
        <mxCell id="ZQYPcDyfvWfTfjv8xI74-39" value="Value 2" style="shape=partialRectangle;html=1;whiteSpace=wrap;connectable=0;fillColor=none;top=0;left=0;bottom=0;right=0;align=left;spacingLeft=6;overflow=hidden;pointerEvents=1;" vertex="1" parent="ZQYPcDyfvWfTfjv8xI74-37">
          <mxGeometry x="80" width="80" height="30" as="geometry" />
        </mxCell>
        <mxCell id="ZQYPcDyfvWfTfjv8xI74-40" value="" style="shape=partialRectangle;html=1;whiteSpace=wrap;collapsible=0;dropTarget=0;pointerEvents=1;fillColor=none;top=0;left=0;bottom=0;right=0;points=[[0,0.5],[1,0.5]];portConstraint=eastwest;" vertex="1" parent="ZQYPcDyfvWfTfjv8xI74-33">
          <mxGeometry y="110" width="160" height="40" as="geometry" />
        </mxCell>
        <mxCell id="ZQYPcDyfvWfTfjv8xI74-41" value="content 3" style="shape=partialRectangle;html=1;whiteSpace=wrap;connectable=0;fillColor=none;top=0;left=0;bottom=0;right=0;overflow=hidden;pointerEvents=1;" vertex="1" parent="ZQYPcDyfvWfTfjv8xI74-40">
          <mxGeometry width="80" height="40" as="geometry" />
        </mxCell>
        <mxCell id="ZQYPcDyfvWfTfjv8xI74-42" value="Value 3" style="shape=partialRectangle;html=1;whiteSpace=wrap;connectable=0;fillColor=none;top=0;left=0;bottom=0;right=0;align=left;spacingLeft=6;overflow=hidden;pointerEvents=1;" vertex="1" parent="ZQYPcDyfvWfTfjv8xI74-40">
          <mxGeometry x="80" width="80" height="40" as="geometry" />
        </mxCell>
        <mxCell id="ZQYPcDyfvWfTfjv8xI74-43" value="" style="shape=process;whiteSpace=wrap;html=1;backgroundOutline=1;" vertex="1" parent="WIyWlLk6GJQsqaUBKTNV-1">
          <mxGeometry x="160" y="90" width="120" height="60" as="geometry" />
        </mxCell>
        <mxCell id="ZQYPcDyfvWfTfjv8xI74-5" value="f(asset_name)" style="text;html=1;strokeColor=none;fillColor=none;align=center;verticalAlign=middle;whiteSpace=wrap;rounded=0;" vertex="1" parent="WIyWlLk6GJQsqaUBKTNV-1">
          <mxGeometry x="180" y="110" width="80" height="20" as="geometry" />
        </mxCell>
      </root>
    </mxGraphModel>
  </diagram>
</mxfile>
